<svg xmlns="http://www.w3.org/2000/svg" viewBox="0 0 39 21.81"><defs><style>.cls-1{fill:none;stroke:#fff;stroke-linecap:round;stroke-miterlimit:10;stroke-width:4px;}</style></defs><title>Aquarius</title><g id="Layer_2" data-name="Layer 2"><g id="sketch3"><path class="cls-1" d="M2,6.85,7.17,2.25a.89.89,0,0,1,1.26.07l4,4.53a.89.89,0,0,0,1.23.1L19.49,2.2a.89.89,0,0,1,1.23.1l4,4.52A.89.89,0,0,0,26,6.89l5.15-4.63a.89.89,0,0,1,1.26.07L37,7.49"/><path class="cls-1" d="M2,19.16l5.17-4.59a.89.89,0,0,1,1.26.07l4,4.53a.89.89,0,0,0,1.23.1l5.81-4.75a.89.89,0,0,1,1.23.1l4,4.52a.89.89,0,0,0,1.26.07l5.15-4.63a.89.89,0,0,1,1.26.07L37,19.81"/></g></g></svg>