<svg xmlns="http://www.w3.org/2000/svg" viewBox="0 0 115.12 109.17"><title>dog</title><g id="Layer_2" data-name="Layer 2"><g id="Layer_5" data-name="Layer 5"><path d="M26.47,76.34s.63-23.39,1.64-29.55C29.19,40.19,36,20.65,36,20.65c.77-4.73-5.31-9.88-8.41-6.23-9.37,11-25.79,22.51-25.79,22.51-3.08,1.52-1.76,5.26,0,8.21,0,0,10.47,16.93,13.13,21.34C17.83,71.22,16.62,78,16.62,78,19.43,82.7,25.59,81.76,26.47,76.34Z"/><path d="M57.46,101.69c22.21-1.88,22.1-14.1,28.87-29.5,3.25-7.39,8.88-23.54,8.88-32.64C95.22,11.47,79.23,0,57.46,0h.2C35.89,0,19.9,11.47,19.9,39.55c0,9.1,5.63,25.25,8.88,32.64,6.77,15.41,6.66,27.62,28.87,29.5"/><path d="M88.65,76.34S88,52.95,87,46.79c-1.08-6.6-7.94-26.14-7.94-26.14-.77-4.73,5.31-9.88,8.41-6.23,9.37,11,25.79,22.51,25.79,22.51,3.08,1.52,1.76,5.26,0,8.21,0,0-10.47,16.93-13.13,21.34C97.3,71.22,98.5,78,98.5,78,95.69,82.7,89.54,81.76,88.65,76.34Z"/><path d="M67.51,95.22c0,7.71-3.39,14-9.85,14-5.54,0-9.85-6.25-9.85-14s4.41-14,9.85-14S67.51,87.51,67.51,95.22Z"/></g></g></svg>