<svg xmlns="http://www.w3.org/2000/svg" viewBox="0 0 107 129.6"><defs><style>.cls-1,.cls-2{fill:none;stroke:#000;stroke-linecap:round;stroke-miterlimit:10;}.cls-1{stroke-width:5px;}</style></defs><title>dragon</title><g id="Layer_2" data-name="Layer 2"><g id="Layer_5" data-name="Layer 5"><path class="cls-1" d="M2.5,11.2S16.16,23,22.54,33.06,35.29,55.83,35.29,55.83"/><line class="cls-1" x1="19.78" y1="29.16" x2="20.26" y2="17.12"/><path class="cls-2" d="M38,113s-17.76,6.51-24.13-16C2.51,56.9,31.19,54.43,3,1.19"/><path d="M53.5,129.6s10,0,13.66-5.46c1.26-1.9,1.82-8.2,1.82-10,1.29-5.28,5.36-10.85,10-25.66C82.26,78.08,86.29,66,81.73,55.53S53.5,45.81,53.5,45.81s-23.68-.75-28.23,9.73S24.74,78.08,28,88.45c4.65,14.81,8.73,20.38,10,25.66,0,1.82.56,8.12,1.82,10C43.48,129.6,53.5,129.6,53.5,129.6Z"/><path class="cls-1" d="M104.5,11.2S90.84,23,84.46,33.06,71.71,55.83,71.71,55.83"/><line class="cls-1" x1="87.22" y1="29.16" x2="86.74" y2="17.12"/><path class="cls-2" d="M69,113s17.76,6.51,24.13-16C104.49,56.9,75.81,54.43,104,1.19"/><path d="M53.5,103.19c10.93-.91,37.79-10.47,39.62-36.88-3.64,4.55-4.55,3.64-4.55,3.64a170.49,170.49,0,0,0,5-29.6c-7.29,14.57-10,15.48-10,15.48S88.11,44,80.82,33.06A62.41,62.41,0,0,1,71.71,11.2S67.16,30.75,64.43,34.4C63.52,25.29,55.32,15.48,53.5,0c-1.82,15.48-10,24.1-10.93,33.21-2.73-3.64-7.29-22-7.29-22a62.41,62.41,0,0,1-9.11,21.86C18.89,44,23.45,55.83,23.45,55.83s-2.73-.91-10-15.48a170.49,170.49,0,0,0,5,29.6s-.91.91-4.55-3.64c1.82,26.41,28.69,36,39.62,36.88"/></g></g></svg>