<svg xmlns="http://www.w3.org/2000/svg" viewBox="0 0 93.48 118.58"><title>goat</title><g id="Layer_2" data-name="Layer 2"><g id="Layer_5" data-name="Layer 5"><path d="M47.63,17.38h-.14c9,0,15.85.06,22.09,7C80,36,75.33,44.72,69.52,63.33c-2,6-5.7,5.7-8.54,29.43-2.84,3.41-5.7,6.65-13.29,7.6h0c-7.6-.95-10.45-4.18-13.29-7.6C31.49,69,27.79,69.3,25.8,63.33,20,44.72,15.27,36,25.73,24.38c6.24-6.93,13-7,22.09-7h-.14"/><path d="M62.73,28.28c2.1-3.67,11-2.55,19.82,2.5S93.48,49.14,93.48,49.14A41.82,41.82,0,0,1,75,44.08C66.11,39,60.63,32,62.73,28.28Z"/><path d="M72.4,27.68s7.88-16.89,7.88-27c0-.88-1.61-.86-2.25,0-6.76,9-17.22,20.51-17.22,20.51"/><path d="M30.74,28.28c-2.1-3.67-11-2.55-19.82,2.5S0,49.14,0,49.14a41.82,41.82,0,0,0,18.52-5.06C27.37,39,32.84,32,30.74,28.28Z"/><path d="M21.07,27.68s-7.88-16.89-7.88-27c0-.88,1.61-.86,2.25,0,6.76,9,17.22,20.51,17.22,20.51"/><path d="M40.06,92.36s2.46,16.71,5.51,22a31.16,31.16,0,0,1-.2-9.08,45,45,0,0,0,9.93,13.34c-1-6.68.56-19.43.56-19.43s4.49,7.31,6.88,8.09c-4.33-6.19-6-17.33-6-17.33Z"/></g></g></svg>