<svg xmlns="http://www.w3.org/2000/svg" viewBox="0 0 75.72 94.59"><title>horse</title><g id="Layer_2" data-name="Layer 2"><g id="Layer_5" data-name="Layer 5"><path d="M18.21,29.2c-3,2.21-9.81-1.94-15.13-9.26S.94,1.08.94,1.08A37.14,37.14,0,0,1,14.09,11.94C19.4,19.26,21.25,27,18.21,29.2Z"/><path d="M57.27,29.2c3,2.21,9.81-1.94,15.13-9.26S74.54,1.08,74.54,1.08A37.14,37.14,0,0,0,61.4,11.94C56.08,19.26,54.23,27,57.27,29.2Z"/><path d="M37.72,7.2h-.15c9.53,0,16.7.07,23.27,7.37,11,12.25,6.05,21.43-.07,41-2.1,6.29-6,6-9,31-3,3.6-6,7-14,8h-.05c-8-1-11-4.4-14-8-3-25-6.9-24.71-9-31C8.59,36,3.62,26.82,14.65,14.57,21.22,7.27,28.39,7.2,37.92,7.2h-.15"/><path d="M37.72.2c8-1,12,2,13,4s12.5,18.5,12.75,21.75S72.72,44.2,75.72,46.2c-7,0-34-30-34-30l-18,1S23.82,1.94,37.72.2Z"/><path d="M41.72,1.2s13,1,17-1c-7,6-17,5-17,5Z"/></g></g></svg>