<svg xmlns="http://www.w3.org/2000/svg" viewBox="0 0 94.37 102.14"><defs><style>.cls-1{fill:none;stroke:#000;stroke-linecap:round;stroke-miterlimit:10;stroke-width:4px;}</style></defs><title>monkey</title><g id="Layer_2" data-name="Layer 2"><g id="Layer_5" data-name="Layer 5"><path d="M85.77,6.11a21.92,21.92,0,0,1,0,29.51,18.6,18.6,0,0,1-27.56,0,21.92,21.92,0,0,1,0-29.51A18.6,18.6,0,0,1,85.77,6.11Z"/><circle cx="53.94" cy="24.74" r="7.09" transform="translate(-1.7 45.39) rotate(-45)"/><circle cx="87.28" cy="20.99" r="7.09" transform="translate(10.72 67.86) rotate(-45)"/><path d="M53.39,95.94c-18.1,0-32.78-3.54-32.78-32.78,0-18.1,25.31-33.67,43.41-33.67C75.17,29.49,81,37,82,46,84,64,71.49,95.94,53.39,95.94Z"/><circle cx="67.12" cy="85.75" r="14.62"/><ellipse cx="69.33" cy="95.05" rx="20.38" ry="7.09"/><path class="cls-1" d="M31.24,81.76S16.18,83.54,10,71.13,25,50.75,20.61,33C18.16,23.24,7.32,17.09,2,17.09"/></g></g></svg>