<svg xmlns="http://www.w3.org/2000/svg" viewBox="0 0 100.15 103"><title>ox</title><g id="Layer_2" data-name="Layer 2"><g id="Layer_5" data-name="Layer 5"><path d="M46.47,19.41S29.34,20.09,18,17C10.21,14.93,5.05,7,2.37.75A1.23,1.23,0,0,0,0,1.22C-.1,9.39,6.55,29.41,22.17,34.17c22,6.69,26.37-.89,26.37-.89Z"/><path d="M30.49,35.77c1.93,2.78-1.69,8.63-8.08,13.06S5.95,50,5.95,50a30.86,30.86,0,0,1,9.48-11.24C21.82,34.33,28.56,33,30.49,35.77Z"/><path d="M53.68,19.41S70.81,20.09,82.2,17C89.93,14.93,95.1,7,97.78.75a1.23,1.23,0,0,1,2.37.47C100.25,9.39,93.6,29.41,78,34.17c-22,6.69-26.37-.89-26.37-.89Z"/><path d="M69.66,35.77c-1.93,2.78,1.69,8.63,8.08,13.06S94.2,50,94.2,50a30.86,30.86,0,0,0-9.48-11.24C78.33,34.33,71.58,33,69.66,35.77Z"/><path d="M50.2,103c8-1,11-4.4,14-8,3-25,6.9-24.71,9-31,6.12-19.59,11.09-28.78.07-41C66.7,15.67,59.53,15.61,50,15.61h.15c-9.53,0-16.7.07-23.27,7.37-11,12.25-6.05,21.43.07,41,2.1,6.29,6,6,9,31,3,3.6,6,7,14,8"/></g></g></svg>