<svg xmlns="http://www.w3.org/2000/svg" viewBox="0 0 95.08 97.4"><title>pig</title><g id="Layer_2" data-name="Layer 2"><g id="Layer_5" data-name="Layer 5"><path d="M27.21,15.66c-6.1-9-14.59-7.46-17.13-11.26S5.66-.81,3.13.45C2.18.93,2,8.23,1.08,13.4-.4,22-1.47,30.87,5.66,37.2,17.07,47.34,27.21,41,27.21,41L36.08,29.6S29.52,19.08,27.21,15.66Z"/><path d="M83,65.4c0-5.55-2.58-20.25-4.39-25C70.54,19.25,63.2,16.71,50.47,18.77a18.37,18.37,0,0,1-5.86,0c-12.73-2.06-20.07.49-28.14,21.63-1.81,4.75-4.39,19.45-4.39,25,0,22.56,16.77,31.93,35.36,32h.2C66.23,97.33,83,88,83,65.4Z"/><path d="M67.87,15.66C74,6.62,82.47,8.2,85,4.4S89.41-.81,91.95.45C92.9.93,93.12,8.23,94,13.4c1.47,8.63,2.54,17.47-4.59,23.8C78,47.34,67.87,41,67.87,41L59,29.6S65.56,19.08,67.87,15.66Z"/></g></g></svg>