<svg xmlns="http://www.w3.org/2000/svg" viewBox="0 0 127 81.75"><defs><style>.cls-1,.cls-2{fill:none;stroke:#000;stroke-linecap:round;stroke-miterlimit:10;}.cls-1{stroke-width:3px;}</style></defs><title>rat</title><g id="Layer_2" data-name="Layer 2"><g id="Layer_5" data-name="Layer 5"><path d="M46.26,9c6.43-2.36,13.2,0,15,5s-1.81,11.15-8.24,13.52-13.16.15-15-5S39.83,11.37,46.26,9Z"/><path d="M24,4.9C28.74-.65,37-1.42,41.31,2.26s4.93,11.92.22,17.47-12.44,6.73-17.27,2.64S19.33,10.45,24,4.9Z"/><ellipse cx="65.82" cy="50.22" rx="32.66" ry="29.28"/><ellipse cx="56.81" cy="76.12" rx="18.02" ry="5.63"/><path d="M41.12,43.68c-7.51,11.08-18.05,12-27,11-9.13-1-4.79-16.86.2-29.16s19.61-16,27-11S48.64,32.6,41.12,43.68Z"/><path class="cls-1" d="M89.46,64.86s25.9-2.25,22.52-27S125.5,8.55,125.5,8.55"/><line class="cls-2" x1="0.5" y1="44.59" x2="14.01" y2="50.22"/><line class="cls-2" x1="1.18" y1="53.22" x2="15.58" y2="50.6"/></g></g></svg>