<svg xmlns="http://www.w3.org/2000/svg" viewBox="0 0 108.06 114.17"><defs><style>.cls-1{fill:none;stroke:#000;stroke-linecap:round;stroke-miterlimit:10;stroke-width:2px;}</style></defs><title>rooster</title><g id="Layer_2" data-name="Layer 2"><g id="Layer_5" data-name="Layer 5"><path d="M52.14,42.41c-5.83-.72-12.41-3.72-17.38-6.21-7.84-5.16.79-28.55-17.38-31C6.21,3.94,0,19.71,0,19.71s12.41,0,11.17,10.51C9.45,37.95,7.45,44.89,7.45,51.1c0,5,3.66,16.2,7.45,21.1,7.86,9.65,17.23,17.7,32.27,22.34C67.76,92,74.48,75.93,86.89,71,88.88,54.87,74,45.11,52.14,42.41Z"/><path d="M12.41,7.66s-.72-3,1.24-5C14.9,1.45,19-.67,19.86.21a1.72,1.72,0,0,1,0,2.48s3.72-1.24,5,0-1.24,2.48-1.24,2.48,5,0,6.21,2.48c.79,1.57-5,2.48-5,3.72S12.41,7.66,12.41,7.66Z"/><path d="M51.51,49.24s14.9-21.1,28.55-19.86S109.24,64.76,108,80.89c-2.48-8.69-9.93-17.38-9.93-17.38a41,41,0,0,1,2.48,13.65c-2.48-5-5-14.9-9.93-18.62,2.48,5,3.72,22.34,2.48,28.55-5-9.93-5-9.93-8.69-13.65,0,7.45-2.48,16.14-2.48,16.14S75.72,68.48,67,68.48"/><path d="M12.41,22.55s-5,5-5,6.21.55,3.49,3.38,3S12.41,22.55,12.41,22.55Z"/><path d="M43.94,99.77a17.08,17.08,0,0,1-8.74-12c-1.58-8.63,16.48-5.52,16.48-5.52S50.69,94.07,43.94,99.77Z"/><polyline class="cls-1" points="34.76 113.17 44.69 111.93 45.69 102.26 39.63 83.99"/><line class="cls-1" x1="49.65" y1="113.17" x2="44.82" y2="111.85"/><path d="M52.63,96a17.08,17.08,0,0,1-8.74-12c-1.58-8.63,16.48-5.52,16.48-5.52S59.38,90.35,52.63,96Z"/><polyline class="cls-1" points="43.45 109.44 53.38 108.2 54.38 98.54 48.31 80.27"/><line class="cls-1" x1="58.34" y1="109.44" x2="53.51" y2="108.13"/></g></g></svg>