<svg xmlns="http://www.w3.org/2000/svg" viewBox="0 0 40.89 40"><defs><style>.cls-1{fill:none;stroke:#fff;stroke-linecap:round;stroke-miterlimit:10;stroke-width:4px;}</style></defs><title>Scorpio</title><g id="Layer_2" data-name="Layer 2"><g id="sketch3"><path class="cls-1" d="M2,2A19.27,19.27,0,0,1,6.82,5.94c4.82,6.57,4.38,21.89,1.75,27.15"/><path class="cls-1" d="M9,9A5.42,5.42,0,0,1,14.7,4.19c5.25,0,4.38,27.15,4.38,27.15"/><path class="cls-1" d="M18.2,7.69s1.75-3.5,5.25-3.5S26.9,27,27,30.46A4.86,4.86,0,0,0,30,35a8,8,0,0,0,6-1"/><path class="cls-1" d="M33,30l5.61,1.87a.41.41,0,0,1,.26.52L37,38"/></g></g></svg>