<svg xmlns="http://www.w3.org/2000/svg" viewBox="0 0 82.99 92.66"><title>tiger</title><g id="Layer_2" data-name="Layer 2"><g id="Layer_5" data-name="Layer 5"><path d="M14.7,31.27c5.95-2.77,14.27-7.62,8.14-13.79C16.39,11,11.61,2.28,5.56.16A2.91,2.91,0,0,0,1.88,2C-.34,8.31-1,18.64,2.13,22.86,5.81,30.74,8.75,34,14.7,31.27Z"/><path d="M68.3,31.27C62.35,28.49,54,23.64,60.16,17.47,66.61,11,71.39,2.28,77.43.16A2.91,2.91,0,0,1,81.11,2c2.22,6.36,2.87,16.68-.25,20.9C77.19,30.74,74.25,34,68.3,31.27Z"/><path d="M41.62,10.58c17,0,24.25,1.09,29.55,12,3,6.17,5.89,10.4,7.77,15.12-2.41,1-6.37,2.39-9,2.39-3.8,0,6.67,2.9,10.47,2.34A30.68,30.68,0,0,1,81,48.88c0,.88,0,1.72-.08,2.54-2.57-.28-6.36-.86-8.61-2-3.27-1.71,4.16,5.11,8,6.83-1.76,8.8-6.7,14.52-12.74,21.13-7.22,7.9-15.91,15.32-26,15.32s-18.75-7.42-26-15.32c-6-6.61-11-12.33-12.74-21.13,3.84-1.71,11.27-8.53,8-6.83-2.25,1.17-6,1.76-8.61,2,0-.82-.08-1.67-.08-2.54a30.66,30.66,0,0,1,.65-6.42c3.8.56,14.26-2.34,10.47-2.34-2.66,0-6.62-1.42-9-2.39,1.87-4.72,4.78-9,7.77-15.12C17.38,11.67,24.61,10.58,41.62,10.58Z"/></g></g></svg>