<svg xmlns="http://www.w3.org/2000/svg" viewBox="0 0 36 39.47"><defs><style>.cls-1{fill:none;stroke:#fff;stroke-linecap:round;stroke-miterlimit:10;stroke-width:4px;}</style></defs><title>Virgo</title><g id="Layer_2" data-name="Layer 2"><g id="sketch3"><path class="cls-1" d="M2,2A19.27,19.27,0,0,1,6.82,5.94c4.82,6.57,4.38,21.89,1.75,27.15"/><path class="cls-1" d="M9,9A5.42,5.42,0,0,1,14.7,4.19c5.25,0,4.38,27.15,4.38,27.15"/><path class="cls-1" d="M18.2,7.69s1.75-3.5,5.25-3.5,2.4,22.95,3.5,26.27a16.8,16.8,0,0,0,3.5,6.13"/><path class="cls-1" d="M23.46,37.47s8-4.16,9.63-12.26c1.75-8.76.88-12.26-1.75-13.14s-4.82,9.2-4.82,9.2"/></g></g></svg>